<svg height="400" viewBox="0 0 400 400" width="400" xmlns="http://www.w3.org/2000/svg"><path d="m15.64 2.899c-2.973 1.594-7.532 5.527-10.132 8.739l-4.727 5.84v182.522 182.522l4.727 5.84c10.232 12.643-6.562 11.638 194.492 11.638s184.26 1.005 194.492-11.638l4.727-5.84v-182.522-182.522l-4.727-5.84c-10.232-12.643 6.562-11.638-194.492-11.638-171.317 0-179.186.124-184.36 2.899m92.376 58.867c27.406 19.303 12.672 61.576-20.839 59.791-33.395-1.778-43.235-46.036-13.739-61.792 10.19-5.443 25.246-4.572 34.578 2.001m175.161 84.359c17.536 2.214 38.392 17.563 47.032 34.612 8.791 17.348 9.174 20.917 9.989 93.091l.754 66.797h-29.782-29.782l-.46-60.547c-.45-59.284-.532-60.683-3.96-67.097-14.253-26.663-55.417-20.219-65.788 10.299-1.233 3.627-1.805 23.074-1.805 61.328v56.017h-29.687-29.688v-95.312-95.313h28.125 28.125l.01 13.672.01 13.672 6.201-7.234c13.467-15.711 41.072-27.502 59.404-25.373 2.148.25 7.234.874 11.302 1.388m-164.427 99.188v95.312h-29.687-29.688v-95.312-95.313h29.688 29.687z" fill-rule="evenodd"/></svg>